<?xml version="1.0" standalone="no"?>
<!DOCTYPE svg PUBLIC "-//W3C//DTD SVG 20010904//EN"
 "http://www.w3.org/TR/2001/REC-SVG-20010904/DTD/svg10.dtd">
<svg version="1.0" xmlns="http://www.w3.org/2000/svg"
 width="1024.000000pt" height="1024.000000pt" viewBox="0 0 1024.000000 1024.000000"
 preserveAspectRatio="xMidYMid meet">

<g transform="translate(0.000000,1024.000000) scale(0.100000,-0.100000)"
fill="#000000" stroke="none">
<path d="M0 5120 l0 -5120 5120 0 5120 0 0 5120 0 5120 -5120 0 -5120 0 0
-5120z m6173 3090 c27 0 35 -15 203 -354 96 -195 180 -359 187 -364 8 -7 214
-12 607 -16 345 -2 619 -9 653 -15 32 -5 75 -20 95 -32 166 -99 219 -155 257
-273 17 -52 25 -97 23 -126 -3 -44 -3 -45 -48 -53 -25 -4 -95 -6 -157 -5
l-112 3 -43 44 c-68 69 -86 73 -308 75 -306 2 -390 -5 -433 -34 -51 -35 -87
-110 -89 -185 -3 -125 28 -199 109 -263 46 -36 77 -40 378 -47 233 -6 292 1
337 42 18 16 37 18 192 15 94 -2 175 -7 179 -11 10 -10 14 -83 21 -426 4 -148
9 -322 11 -385 3 -63 7 -290 11 -505 3 -214 8 -410 9 -435 8 -102 4 -629 -5
-684 -14 -86 -51 -153 -117 -216 -66 -63 -137 -104 -208 -120 -74 -17 -746
-12 -764 6 -11 11 10 13 56 5 39 -6 50 -5 46 5 -3 9 15 11 79 7 48 -3 79 -2
75 3 -8 8 -39 13 -94 14 -14 0 -23 6 -23 16 0 12 5 14 18 9 9 -4 28 -10 42
-13 22 -5 24 -3 11 11 -7 10 -23 17 -36 17 -27 0 -38 10 -26 24 11 12 11 15
11 55 0 16 7 36 15 44 8 8 13 27 12 43 -2 25 1 29 28 29 17 1 46 11 65 23 l35
22 -34 0 c-26 0 -32 -3 -27 -16 5 -13 1 -15 -21 -9 -33 8 -29 4 -37 38 -4 16
-2 27 4 27 5 0 10 -7 10 -15 0 -8 7 -15 15 -15 12 0 13 4 2 28 -6 15 -16 30
-21 33 -5 4 -6 15 -2 24 3 10 1 24 -5 31 -14 17 -1 18 35 4 30 -11 35 2 9 22
-10 7 -24 28 -30 47 -11 30 -10 37 3 52 21 23 8 42 -23 34 -20 -5 -24 -2 -21
12 2 10 9 17 15 16 27 -6 30 134 4 154 -15 11 -14 12 2 13 15 0 17 7 13 41 -2
22 -10 47 -18 56 -14 17 -12 52 3 68 12 13 11 42 -2 51 -6 3 -15 1 -19 -6 -5
-8 -10 -9 -14 -2 -3 6 -2 13 2 16 9 6 5 150 -5 176 -4 8 -5 19 -4 23 0 4 -6
21 -14 37 -8 16 -15 40 -15 54 0 30 -22 26 -38 -7 -6 -12 -11 -16 -11 -9 -1 7
6 24 15 37 11 17 12 25 4 25 -8 0 -10 17 -5 64 8 76 -5 92 -31 38 -9 -20 -19
-31 -22 -24 -2 7 1 18 7 25 5 7 13 33 16 57 5 32 4 41 -4 30 -16 -23 -27 18
-12 42 7 11 10 23 7 26 -3 3 -6 -1 -6 -8 0 -37 -11 6 -20 76 -6 43 -12 97 -15
119 -23 179 -142 483 -260 665 -23 36 -46 72 -51 81 -5 9 -29 40 -54 70 -102
120 -158 180 -215 230 -33 28 -62 55 -65 58 -7 10 -119 93 -165 122 -148 96
-259 151 -404 199 -325 109 -682 124 -1004 44 -72 -18 -214 -65 -272 -89 -112
-47 -282 -141 -340 -187 -5 -5 -41 -32 -80 -60 -175 -129 -352 -339 -465 -551
-97 -184 -174 -414 -196 -592 -19 -145 -13 -417 11 -535 3 -14 8 -41 11 -60
26 -147 81 -299 174 -487 47 -95 83 -173 80 -173 -4 0 -13 11 -20 25 -7 13
-17 22 -21 19 -5 -3 -6 2 -3 11 5 11 2 14 -11 8 -15 -5 -17 -2 -12 16 3 13 3
20 0 17 -4 -3 -12 -1 -18 4 -9 7 -16 5 -25 -5 -11 -13 -11 -23 0 -54 7 -21 10
-43 7 -48 -5 -8 9 -49 34 -95 13 -26 11 -36 -8 -41 -15 -4 -15 -6 5 -12 24 -8
30 -25 10 -25 -7 0 -3 -8 10 -18 16 -13 23 -29 25 -62 1 -25 7 -48 12 -53 6
-4 3 -11 -7 -18 -19 -11 -25 -39 -8 -39 6 0 10 -11 10 -25 0 -13 8 -28 17 -34
17 -9 17 -10 0 -29 -16 -18 -16 -20 -2 -26 9 -3 24 -2 34 3 10 6 23 6 32 0 11
-7 10 -9 -6 -9 -17 0 -16 -3 10 -25 l30 -25 -655 4 c-456 3 -669 7 -700 15
-149 40 -277 169 -310 314 -6 27 -12 305 -14 669 -3 343 -8 891 -12 1219 -5
496 -4 598 7 605 8 5 143 8 300 7 159 -1 305 3 330 8 82 19 126 90 117 188 -5
54 -33 103 -77 136 -24 19 -43 20 -291 21 -146 1 -291 2 -322 3 l-58 1 5 58
c11 123 36 176 122 261 62 60 132 96 218 112 38 7 324 9 863 7 l806 -3 186
372 185 372 175 3 c96 2 429 2 740 0 311 -1 578 -2 593 -2z m-2240 -208 c21
-21 22 -30 20 -149 -2 -149 -16 -199 -66 -228 -31 -19 -50 -20 -432 -18 -220
2 -410 5 -422 8 -12 3 -26 18 -33 37 -15 43 -25 273 -13 318 15 58 26 59 501
57 l422 -3 23 -22z m3734 -1047 c18 -4 23 -15 28 -60 9 -71 2 -162 -14 -178
-9 -9 -71 -11 -234 -10 -122 2 -232 5 -245 8 -31 7 -42 42 -42 128 0 109 4
115 59 119 70 5 423 -1 448 -7z m-2130 -125 c133 -18 372 -82 408 -111 6 -4
34 -17 64 -29 65 -25 178 -96 272 -169 80 -63 223 -216 289 -309 221 -313 314
-667 265 -1005 -15 -108 -46 -240 -74 -317 -34 -97 -141 -302 -171 -330 -3 -3
-13 -17 -22 -31 -21 -34 -99 -121 -169 -189 -211 -207 -521 -353 -834 -391
-314 -39 -725 58 -982 231 -24 17 -47 30 -50 30 -3 0 -27 17 -52 37 -25 21
-52 42 -59 48 -51 40 -178 177 -228 245 -53 72 -134 213 -134 231 0 8 -4 19
-9 25 -15 17 -59 138 -81 229 -25 100 -26 104 -40 225 -48 424 102 854 404
1155 227 226 561 393 861 428 68 8 269 6 342 -3z m-1654 -2467 c-7 -2 -19 -2
-25 0 -7 3 -2 5 12 5 14 0 19 -2 13 -5z m77 -95 c0 -4 23 -34 51 -65 28 -32
61 -70 75 -86 13 -15 24 -30 24 -34 0 -12 -70 61 -113 117 -23 30 -49 63 -59
73 -10 10 -25 32 -34 50 -15 31 -14 31 20 -8 19 -22 35 -43 36 -47z m-110 -58
c0 -5 -4 -10 -10 -10 -5 0 -10 5 -10 10 0 6 5 10 10 10 6 0 10 -4 10 -10z
m3297 -366 c-3 -3 -12 -4 -19 -1 -8 3 -5 6 6 6 11 1 17 -2 13 -5z m-591 -709
c90 -16 275 -123 274 -158 -1 -7 -21 -28 -46 -47 -25 -19 -57 -44 -70 -55 -24
-19 -24 -19 -38 0 -8 11 -43 35 -79 53 -51 26 -78 34 -129 35 -74 2 -108 -14
-134 -65 -15 -30 -15 -34 1 -64 19 -36 82 -69 248 -128 119 -43 167 -79 202
-151 57 -115 38 -238 -50 -329 -80 -82 -179 -113 -320 -102 -138 10 -262 65
-360 158 l-30 29 65 59 c36 33 68 59 72 60 4 0 22 -13 40 -29 83 -72 214 -112
304 -92 57 13 80 33 94 79 7 25 4 36 -12 57 -25 32 -63 51 -215 108 -130 49
-168 71 -220 127 -107 115 -37 343 130 424 80 40 169 50 273 31z m-3956 -19
c76 -19 166 -61 223 -104 26 -20 47 -39 47 -42 0 -7 -136 -120 -145 -120 -3 0
-27 16 -52 35 -48 37 -125 65 -177 65 -46 0 -112 -36 -126 -69 -9 -24 -9 -35
4 -60 22 -42 42 -53 179 -100 177 -61 228 -96 280 -195 29 -55 30 -184 3 -236
-64 -121 -152 -171 -308 -178 -79 -4 -110 0 -170 18 -79 23 -159 64 -223 114
-57 43 -58 48 -27 75 15 13 44 39 66 59 27 24 43 32 51 26 75 -52 126 -83 155
-92 137 -43 264 -10 262 68 -2 73 -25 89 -217 157 -164 58 -219 94 -255 170
-19 41 -22 59 -17 119 16 216 217 346 447 290z m4519 -2 c44 -17 65 -43 74
-89 22 -118 -154 -179 -209 -73 -19 37 -20 98 -2 128 13 20 63 49 85 50 7 0
30 -7 52 -16z m-1948 -310 c113 -51 169 -148 177 -303 3 -81 1 -105 -18 -153
-28 -75 -101 -155 -176 -193 -51 -26 -68 -29 -143 -29 -70 0 -94 5 -131 24
-25 12 -51 31 -58 41 -7 11 -17 19 -23 19 -5 0 -9 -72 -9 -174 0 -127 -3 -176
-12 -183 -7 -5 -52 -10 -100 -12 -69 -2 -88 0 -89 10 -3 40 3 945 6 949 2 4
45 7 96 9 l92 2 -5 -46 c-6 -49 2 -64 22 -40 28 34 114 88 158 100 66 17 144
10 213 -21z m3157 -1 c102 -51 167 -154 172 -273 1 -30 2 -61 1 -67 -1 -10
-44 -13 -178 -13 -203 0 -283 -7 -283 -25 0 -26 59 -93 88 -100 61 -13 134
-13 188 2 31 8 58 13 59 11 2 -2 19 -33 38 -69 l36 -67 -37 -16 c-99 -43 -229
-49 -330 -15 -54 18 -78 34 -125 80 -80 80 -102 132 -102 239 0 67 5 96 24
140 26 59 85 128 139 162 87 54 215 58 310 11z m-4808 -3 c47 -22 87 -69 110
-130 19 -50 26 -525 8 -537 -7 -4 -52 -9 -100 -10 -78 -3 -88 -1 -89 14 0 10
0 97 1 194 1 194 -9 255 -46 290 -33 31 -93 29 -145 -5 -67 -45 -73 -66 -75
-283 -2 -106 -6 -198 -9 -203 -9 -14 -173 -9 -185 5 -4 5 -7 156 -7 335 l2
325 84 5 c45 3 88 2 93 -1 7 -4 8 -22 5 -43 -3 -20 -4 -36 -1 -36 2 0 27 17
56 37 100 72 203 87 298 43z m711 4 c141 -51 160 -89 168 -349 6 -167 9 -196
29 -239 25 -55 28 -75 10 -77 -37 -4 -61 -7 -105 -12 -56 -8 -64 -4 -87 41 -9
17 -19 32 -21 32 -3 0 -27 -14 -55 -31 -96 -59 -186 -69 -273 -31 -62 27 -94
58 -113 109 -33 86 1 200 76 253 44 32 120 50 238 57 56 3 105 10 108 14 3 5
-2 22 -11 38 -31 62 -148 70 -264 20 -28 -12 -53 -20 -55 -18 -3 4 -35 126
-39 148 -4 25 159 67 270 70 33 1 78 -8 124 -25z m3602 -14 c-1 -14 -6 -36
-12 -50 -25 -56 -143 -234 -248 -375 -18 -24 -33 -46 -33 -49 0 -8 125 -6 188
3 29 4 55 4 58 -1 3 -5 8 -47 10 -93 5 -83 5 -85 -18 -86 -79 -4 -539 1 -547
6 -19 11 14 68 133 238 102 143 175 252 171 255 -2 2 -55 4 -119 4 l-115 1 3
46 c1 25 -1 62 -5 80 -4 19 -6 38 -3 43 3 4 125 7 272 5 l267 -2 -2 -25z
m-678 -318 c0 -176 -3 -324 -7 -328 -4 -4 -48 -9 -98 -11 l-90 -5 0 119 c-1
65 -3 216 -7 335 l-5 217 28 -3 c16 -2 56 -1 89 3 33 4 67 4 75 0 13 -6 15
-52 15 -327z m-1375 171 c78 -70 27 -196 -79 -197 -83 0 -141 106 -94 174 28
40 45 49 95 50 38 0 54 -6 78 -27z m-1937 -1039 c26 -14 47 -30 47 -37 0 -7
-18 -30 -40 -52 l-39 -38 -10 27 c-18 46 -109 60 -138 20 -25 -34 -16 -42 87
-78 113 -41 157 -81 174 -161 8 -36 -33 -107 -72 -125 -93 -42 -211 -25 -288
43 -13 11 -24 24 -24 27 0 4 18 20 41 36 36 25 42 26 50 12 11 -21 99 -50 136
-46 18 2 33 13 43 31 14 26 14 29 -4 42 -11 8 -40 22 -65 31 -121 44 -159 66
-172 97 -38 90 16 176 126 201 35 7 98 -6 148 -30z m743 17 c0 -1 0 -18 -2
-38 -2 -21 -3 -43 -3 -50 -1 -8 -15 -11 -43 -8 -81 8 -78 17 -78 -195 0 -186
0 -188 -22 -194 -13 -3 -35 -6 -50 -6 l-28 0 -2 118 c0 64 -2 153 -2 197 l-1
80 -75 0 -75 0 3 45 c1 24 8 48 15 52 9 6 357 5 363 -1z m719 -11 c3 -4 6 -75
6 -156 3 -208 -15 -260 -104 -303 -79 -38 -192 -21 -255 38 -44 43 -53 85 -55
261 l-2 165 43 3 c28 2 44 -1 46 -10 3 -7 7 -76 9 -154 5 -147 17 -192 56
-214 44 -23 130 0 151 41 8 14 12 75 13 173 0 83 3 156 8 162 9 11 76 7 84 -6z
m1177 -3 c3 -6 6 -115 5 -241 l-2 -231 -47 -3 c-41 -3 -48 0 -48 15 -3 139 0
466 5 473 7 11 78 0 87 -13z m670 7 c53 -21 113 -76 141 -129 27 -53 30 -165
4 -212 -64 -120 -192 -170 -323 -127 -175 56 -224 287 -90 415 68 65 179 87
268 53z m-1239 -14 c102 -38 160 -123 159 -236 -1 -93 -43 -163 -127 -207 -32
-17 -63 -22 -164 -25 -97 -4 -125 -2 -132 9 -5 8 -9 119 -9 247 l0 232 110 0
c85 0 121 -4 163 -20z"/>
<path d="M3234 7060 c-50 -19 -79 -83 -61 -134 19 -54 59 -80 115 -73 104 12
139 129 56 190 -27 20 -79 28 -110 17z"/>
<path d="M7400 4584 c0 -8 5 -12 10 -9 6 4 8 11 5 16 -9 14 -15 11 -15 -7z"/>
<path d="M3741 4531 c-8 -5 -9 -11 -3 -15 13 -8 42 3 42 15 0 11 -21 11 -39 0z"/>
<path d="M7405 4491 c-3 -5 -1 -12 5 -16 5 -3 10 1 10 9 0 18 -6 21 -15 7z"/>
<path d="M7390 4235 c0 -8 5 -15 10 -15 6 0 10 7 10 15 0 8 -4 15 -10 15 -5 0
-10 -7 -10 -15z"/>
<path d="M7360 4080 c0 -5 9 -10 21 -10 11 0 17 5 14 10 -3 6 -13 10 -21 10
-8 0 -14 -4 -14 -10z"/>
<path d="M3810 4070 c0 -5 5 -10 11 -10 5 0 7 5 4 10 -3 6 -8 10 -11 10 -2 0
-4 -4 -4 -10z"/>
<path d="M7400 4040 c0 -17 2 -19 14 -8 14 13 12 28 -5 28 -5 0 -9 -9 -9 -20z"/>
<path d="M7448 4034 c3 -15 8 -22 14 -16 9 9 1 42 -12 42 -4 0 -5 -12 -2 -26z"/>
<path d="M7373 3966 c-12 -15 -7 -26 12 -26 6 0 11 9 12 20 2 23 -7 25 -24 6z"/>
<path d="M7685 3870 c27 -12 43 -12 25 0 -8 5 -22 9 -30 9 -10 0 -8 -3 5 -9z"/>
<path d="M3837 7973 c-4 -3 -7 -68 -7 -144 0 -119 2 -138 17 -143 27 -11 38
12 38 82 0 50 -9 178 -15 210 -1 5 -27 2 -33 -5z"/>
<path d="M3059 7968 c-4 -14 -8 -71 -10 -161 -3 -87 0 -110 11 -117 29 -19 35
-2 38 111 3 111 -7 169 -28 169 -5 0 -10 -1 -11 -2z"/>
<path d="M3207 7963 c-2 -5 -5 -68 -5 -140 -2 -125 -1 -133 17 -133 11 0 23 5
27 11 11 18 12 211 2 242 -9 25 -32 36 -41 20z"/>
<path d="M3371 7952 c-7 -13 -10 -67 -9 -139 3 -112 4 -118 24 -121 29 -4 33
17 27 145 -5 115 -20 156 -42 115z"/>
<path d="M3529 7949 c-21 -13 -22 -246 -1 -254 28 -10 34 12 39 133 4 97 2
120 -10 125 -7 3 -20 1 -28 -4z"/>
<path d="M3677 7953 c-4 -3 -7 -57 -7 -119 0 -102 2 -114 19 -124 14 -7 22 -7
26 1 8 12 7 228 -1 240 -6 11 -28 12 -37 2z"/>
<path d="M5272 6519 c-269 -24 -493 -126 -691 -313 -35 -34 -74 -77 -87 -96
-12 -19 -43 -64 -68 -100 -25 -36 -46 -69 -46 -74 0 -5 -6 -17 -13 -25 -26
-32 -85 -178 -108 -271 -21 -82 -24 -118 -24 -265 1 -140 5 -185 23 -258 53
-215 158 -403 299 -537 82 -79 156 -140 170 -140 6 0 15 -6 21 -13 37 -44 344
-158 463 -172 497 -59 948 156 1185 565 107 185 148 349 146 585 -2 234 -89
484 -230 660 -79 98 -204 219 -265 255 -29 17 -74 45 -102 61 -111 69 -300
127 -432 135 -49 3 -104 6 -123 7 -19 2 -72 0 -118 -4z m-158 -620 c60 -17
139 -81 172 -142 25 -45 29 -62 29 -132 0 -70 -4 -87 -30 -135 -136 -248 -512
-165 -529 117 -5 83 15 139 71 201 77 85 186 119 287 91z m1010 -585 c49 -49
-17 -264 -126 -414 -87 -118 -215 -213 -362 -268 -72 -27 -111 -35 -186 -39
-105 -6 -117 -1 -120 52 -4 63 -5 62 75 69 239 22 437 154 550 368 26 50 52
116 60 155 8 39 21 73 32 80 23 18 58 16 77 -3z m-906 -587 c15 -31 5 -58 -33
-83 -44 -29 -86 19 -71 81 13 50 80 51 104 2z"/>
<path d="M4925 2646 c-101 -47 -156 -177 -111 -264 9 -18 35 -44 58 -59 68
-45 173 -32 231 28 46 48 56 153 22 229 -30 67 -127 99 -200 66z"/>
<path d="M8145 2679 c-38 -12 -67 -37 -82 -71 -14 -30 -6 -39 26 -33 12 2 60
5 106 6 102 3 113 8 97 43 -22 48 -89 74 -147 55z"/>
<path d="M4010 2408 c-27 -18 -36 -32 -38 -59 -4 -49 25 -74 87 -73 97 1 171
67 140 123 -13 24 -21 26 -85 29 -59 2 -75 -1 -104 -20z"/>
<path d="M6985 1515 c-47 -23 -78 -77 -77 -131 3 -118 117 -187 224 -135 90
43 110 151 43 232 -40 48 -128 64 -190 34z"/>
<path d="M5745 1520 c-7 -11 -4 -229 3 -267 4 -21 10 -23 56 -22 108 1 156 40
163 131 6 77 -18 117 -88 145 -57 24 -124 30 -134 13z"/>
</g>
</svg>
